<?xml version="1.0" standalone="no"?>
<!DOCTYPE svg PUBLIC "-//W3C//DTD SVG 20010904//EN"
 "http://www.w3.org/TR/2001/REC-SVG-20010904/DTD/svg10.dtd">
<svg version="1.0" xmlns="http://www.w3.org/2000/svg"
 width="784.000000pt" height="784.000000pt" viewBox="0 0 784.000000 784.000000"
 preserveAspectRatio="xMidYMid meet">
<metadata>
Created by potrace 1.14, written by Peter Selinger 2001-2017
</metadata>
<g transform="translate(0.000000,784.000000) scale(0.100000,-0.100000)"
fill="#000000" stroke="none">
<path d="M2098 7819 c-48 -7 -157 -52 -193 -79 -11 -8 -392 -386 -846 -840
-755 -755 -828 -831 -856 -890 -38 -79 -44 -103 -48 -202 -5 -109 19 -179 124
-360 48 -84 94 -164 102 -178 8 -14 16 -27 19 -30 3 -3 13 -21 22 -40 10 -19
22 -42 28 -50 26 -38 210 -364 210 -371 0 -5 5 -9 10 -9 6 0 10 -4 10 -9 0 -9
119 -222 130 -231 3 -3 11 -16 17 -30 7 -14 26 -47 42 -75 16 -27 39 -68 51
-90 57 -104 158 -225 189 -225 6 0 11 -3 11 -8 0 -13 108 -56 175 -69 17 -4
545 -6 1175 -7 1132 0 1146 0 1190 20 79 36 141 109 156 185 15 71 5 122 -39
209 -68 136 -172 335 -177 340 -3 3 -19 32 -36 65 -17 33 -49 94 -71 135 -22
41 -64 120 -93 175 -29 55 -65 123 -79 150 -47 86 -174 329 -185 352 -6 13
-14 23 -18 23 -5 0 -8 8 -8 18 0 10 -4 22 -9 28 -8 9 -43 73 -136 249 -73 139
-151 285 -178 335 -14 25 -51 96 -82 159 -52 104 -58 121 -60 185 -4 115 29
198 111 279 114 113 299 154 434 96 27 -12 50 -25 50 -30 0 -5 6 -9 13 -9 22
0 75 -65 136 -168 34 -56 61 -107 61 -112 0 -6 5 -10 10 -10 6 0 10 -4 10 -10
0 -8 61 -118 99 -180 12 -18 234 -403 275 -475 15 -27 50 -87 77 -133 27 -45
49 -87 49 -92 0 -6 4 -10 8 -10 4 0 13 -12 19 -27 7 -16 17 -35 22 -43 16 -24
91 -152 91 -155 0 -2 27 -49 60 -104 33 -56 60 -104 60 -108 0 -3 6 -14 14
-22 7 -9 27 -41 44 -71 16 -30 69 -122 116 -203 47 -82 86 -152 86 -158 0 -5
5 -9 10 -9 6 0 10 -4 10 -10 0 -15 87 -152 117 -185 26 -28 102 -89 113 -91 3
0 26 -10 53 -22 26 -12 57 -23 70 -24 12 -2 27 -6 32 -10 6 -3 555 -5 1220 -4
l1210 1 42 22 c131 69 184 198 136 329 -14 39 -136 270 -193 364 -43 72 -400
732 -400 740 0 5 -3 10 -8 10 -4 0 -15 17 -25 38 -9 20 -25 51 -35 67 -10 17
-39 68 -64 115 -25 47 -57 105 -71 130 -40 71 -175 318 -217 395 -20 39 -49
90 -63 115 -85 153 -117 213 -117 220 0 5 -3 10 -7 12 -5 2 -16 19 -25 38 -29
59 -74 138 -88 155 -7 8 -9 15 -5 15 5 0 2 8 -6 18 -16 19 -17 22 -84 147 -26
50 -51 92 -54 95 -4 3 -11 15 -16 26 -15 33 -78 98 -128 133 -46 31 -137 75
-137 65 0 -2 -10 1 -22 8 -18 10 -381 13 -1808 13 -982 0 -1806 -2 -1832 -6z"/>
<path d="M4073 3859 c-60 -4 -80 -11 -115 -36 -81 -59 -108 -164 -64 -253 43
-88 90 -175 113 -212 13 -21 20 -38 17 -38 -4 0 -2 -6 4 -12 10 -13 45 -78
119 -218 22 -41 59 -111 83 -155 23 -44 67 -127 97 -184 29 -57 64 -122 77
-145 13 -22 51 -95 86 -161 34 -66 77 -147 95 -180 53 -99 137 -257 164 -310
14 -27 28 -52 31 -55 4 -3 12 -21 20 -40 8 -19 16 -37 19 -40 3 -3 17 -25 29
-50 13 -25 51 -97 85 -160 163 -309 161 -303 160 -417 -1 -128 -90 -251 -230
-320 -73 -36 -82 -38 -172 -38 -84 0 -103 3 -151 27 -31 15 -64 36 -75 46 -45
42 -83 90 -78 96 4 3 1 6 -5 6 -7 0 -12 4 -12 10 0 5 -18 39 -40 75 -22 36
-40 69 -40 74 0 5 -3 11 -7 13 -5 2 -16 19 -26 38 -9 19 -26 49 -37 65 -11 17
-26 44 -34 60 -9 17 -27 48 -41 70 -13 22 -28 47 -32 54 -4 8 -58 102 -120
209 -62 107 -113 196 -113 198 0 2 -20 37 -45 77 -25 41 -45 80 -45 86 0 6 -4
11 -10 11 -5 0 -10 5 -10 10 0 6 -12 29 -27 53 -15 23 -40 67 -56 97 -16 30
-34 61 -40 68 -6 8 -20 31 -31 52 -47 88 -100 175 -110 182 -6 4 -8 8 -4 8 4
0 -13 33 -37 74 -25 40 -45 78 -45 84 0 6 -3 12 -8 14 -6 3 -68 107 -170 288
-13 25 -32 56 -41 70 -9 14 -23 38 -31 55 -24 48 -120 138 -185 172 -60 31
-80 38 -160 52 -22 3 -593 6 -1270 6 l-1230 -1 -43 -23 c-99 -51 -137 -165
-88 -265 14 -29 26 -58 26 -64 0 -7 4 -12 9 -12 5 0 13 -10 17 -22 4 -13 9
-25 13 -28 3 -3 16 -25 29 -50 12 -25 33 -63 45 -85 12 -22 56 -101 97 -175
41 -74 87 -157 102 -185 16 -27 36 -66 46 -85 9 -19 19 -37 22 -40 3 -3 17
-27 30 -55 14 -27 28 -52 31 -55 4 -3 15 -23 26 -45 10 -22 34 -67 53 -100 18
-33 43 -78 54 -100 12 -22 23 -42 26 -45 3 -3 17 -27 31 -55 14 -27 35 -66 46
-85 38 -68 168 -304 246 -450 22 -41 46 -82 54 -92 8 -9 15 -22 17 -30 1 -7
11 -29 23 -48 11 -19 37 -66 58 -105 51 -95 172 -314 191 -345 8 -14 20 -37
25 -52 6 -16 15 -28 20 -28 5 0 9 -5 9 -11 0 -6 41 -85 92 -176 107 -195 167
-263 275 -314 37 -17 81 -34 98 -38 36 -7 3619 -8 3655 -1 14 3 31 9 38 13 6
5 12 6 12 3 0 -3 16 3 35 14 20 11 40 20 45 20 19 0 74 54 891 870 842 842
856 857 884 960 0 3 5 16 9 29 14 42 13 164 -1 216 -8 28 -15 56 -15 63 -1 6
-4 12 -8 12 -4 0 -7 6 -7 13 0 7 -30 64 -66 126 -37 62 -67 115 -67 117 0 2
-22 41 -50 85 -27 44 -50 83 -50 85 0 2 -20 38 -45 78 -25 41 -45 77 -45 80 0
3 -16 30 -35 60 -19 30 -35 60 -35 66 0 5 -5 10 -11 10 -5 0 -8 4 -4 9 3 5 1
12 -4 15 -5 3 -35 52 -67 108 -31 57 -63 110 -70 118 -7 8 -12 17 -12 20 1 3
-21 43 -48 89 -27 45 -58 99 -70 120 -11 20 -33 58 -48 86 -79 139 -152 216
-246 257 -82 35 -97 39 -174 45 -111 7 -2233 9 -2323 2z"/>
</g>
</svg>
