<?xml version="1.0" standalone="no"?>
<!DOCTYPE svg PUBLIC "-//W3C//DTD SVG 20010904//EN"
 "http://www.w3.org/TR/2001/REC-SVG-20010904/DTD/svg10.dtd">
<svg version="1.0" xmlns="http://www.w3.org/2000/svg"
 width="914.000000pt" height="914.000000pt" viewBox="0 0 914.000000 914.000000"
 preserveAspectRatio="xMidYMid meet">
<metadata>
Created by potrace 1.14, written by Peter Selinger 2001-2017
</metadata>
<g transform="translate(0.000000,914.000000) scale(0.100000,-0.100000)"
fill="#000000" stroke="none">
<path d="M2140 9040 c-103 -21 -94 -13 -1096 -1014 -749 -749 -967 -972 -987
-1011 -66 -133 -57 -251 32 -400 18 -30 42 -71 82 -142 54 -95 174 -302 195
-335 13 -21 24 -40 24 -42 0 -3 30 -56 66 -118 37 -62 80 -138 97 -168 16 -30
35 -62 41 -70 14 -18 33 -52 61 -105 11 -22 32 -58 46 -80 14 -22 29 -47 32
-55 4 -8 21 -37 38 -65 16 -27 33 -58 36 -67 3 -10 9 -18 14 -18 5 0 9 -4 9
-9 0 -5 23 -49 51 -98 70 -119 88 -150 117 -203 83 -149 130 -201 222 -247 46
-23 70 -28 150 -30 52 -1 109 -4 127 -6 17 -2 37 -1 44 4 7 4 17 5 21 3 14 -9
578 -10 578 -1 0 5 5 5 11 2 16 -11 309 -11 309 -1 0 5 6 3 13 -3 8 -6 16 -9
19 -6 5 5 92 7 128 2 14 -2 32 0 41 5 9 4 19 5 22 2 3 -3 122 -5 264 -4 262 1
283 1 318 -4 11 -1 27 1 36 6 9 4 19 5 22 2 5 -5 94 -7 302 -5 50 1 101 0 115
-2 14 -2 32 0 41 5 9 4 19 5 22 1 10 -9 257 -9 257 0 0 5 5 5 11 1 20 -12 169
-5 222 10 74 22 187 98 187 125 0 6 5 11 12 11 6 0 8 3 5 7 -4 3 0 11 8 17 18
14 54 122 50 153 -1 12 1 23 6 23 5 0 6 6 4 13 -2 6 -6 31 -9 54 -5 47 -36
121 -92 215 -20 35 -50 88 -67 118 -17 30 -33 57 -36 60 -5 4 -18 27 -64 111
-7 13 -25 43 -40 66 -15 24 -27 45 -27 47 0 9 -85 151 -92 154 -5 2 -6 8 -2
13 3 5 0 9 -5 9 -6 0 -11 4 -11 10 0 5 -20 44 -45 86 -25 41 -45 80 -45 85 0
5 -4 9 -10 9 -5 0 -10 6 -10 14 0 8 -7 22 -16 30 -8 9 -12 16 -8 16 4 0 0 8
-8 18 -9 9 -28 40 -43 67 -14 28 -35 64 -45 80 -10 17 -27 46 -38 65 -10 19
-36 64 -57 100 -21 36 -48 83 -60 105 -39 69 -167 289 -183 315 -9 14 -17 28
-17 32 0 4 -6 13 -12 20 -7 6 -13 18 -13 25 0 7 -3 13 -7 13 -5 0 -17 20 -28
45 -11 25 -22 45 -26 45 -3 0 -16 23 -29 50 -13 28 -26 50 -30 50 -3 0 -11 12
-17 28 -7 15 -24 47 -39 72 -15 25 -36 61 -47 80 -11 19 -28 49 -38 65 -11 17
-22 37 -26 45 -4 8 -26 47 -48 85 -60 101 -77 155 -77 250 -1 88 16 156 55
224 33 57 99 126 147 152 17 9 35 21 42 26 15 11 93 35 128 39 31 4 103 7 110
4 3 -1 17 -3 32 -4 35 -4 148 -48 148 -58 0 -5 6 -8 13 -8 25 0 115 -98 159
-172 23 -40 51 -86 61 -103 9 -16 20 -38 23 -47 4 -10 11 -18 17 -18 6 0 8 -3
4 -6 -3 -4 7 -26 23 -50 17 -23 30 -45 30 -48 0 -3 18 -35 40 -71 22 -36 40
-69 40 -74 0 -5 7 -14 15 -21 8 -7 12 -16 9 -21 -3 -5 0 -9 5 -9 6 0 11 -7 11
-15 0 -8 5 -15 10 -15 6 0 10 -5 10 -10 0 -13 121 -223 133 -231 5 -3 8 -9 7
-13 -1 -4 9 -24 21 -44 13 -20 22 -40 21 -44 -1 -5 2 -8 8 -8 5 0 10 -4 10
-10 0 -5 18 -39 40 -75 22 -36 40 -67 40 -69 0 -2 18 -34 40 -70 22 -36 40
-70 40 -75 0 -5 4 -11 8 -13 5 -1 28 -39 52 -83 24 -44 46 -82 49 -85 3 -3 13
-18 21 -35 8 -16 32 -58 53 -92 20 -35 37 -67 37 -73 0 -5 5 -10 10 -10 6 0
10 -5 10 -10 0 -6 21 -47 48 -91 88 -150 113 -194 119 -211 3 -10 9 -18 13
-18 4 0 10 -8 14 -17 3 -10 10 -25 16 -33 12 -19 64 -109 100 -175 15 -27 36
-64 46 -82 107 -181 144 -246 144 -254 0 -5 5 -9 10 -9 6 0 10 -4 10 -9 0 -22
109 -196 147 -235 40 -40 103 -78 155 -94 29 -9 2985 -9 3018 0 14 3 34 10 45
14 27 10 118 74 128 90 4 7 13 19 20 26 25 26 54 85 66 135 31 128 10 203
-111 401 -21 34 -38 67 -38 72 0 6 -3 10 -7 10 -5 0 -17 20 -28 45 -11 25 -23
45 -27 45 -5 0 -8 5 -8 10 0 6 -11 27 -23 48 -13 20 -36 58 -50 85 -15 26 -39
68 -54 95 -14 26 -37 64 -50 84 -12 21 -23 42 -23 48 0 5 -3 10 -7 10 -5 0
-13 10 -19 23 -5 12 -44 81 -85 152 -42 72 -87 150 -101 175 -14 25 -39 69
-57 98 -17 29 -31 57 -31 62 0 6 -4 10 -10 10 -5 0 -10 4 -10 9 0 5 -38 74
-85 155 -47 80 -85 150 -85 156 0 5 -4 10 -10 10 -5 0 -12 11 -16 25 -3 14
-10 25 -15 25 -5 0 -9 5 -9 11 0 6 -23 49 -52 97 -28 48 -64 112 -81 142 -16
30 -35 61 -41 69 -12 15 -27 42 -52 91 -10 19 -39 69 -64 110 -25 41 -52 89
-60 105 -8 17 -23 40 -35 53 -11 13 -18 24 -16 25 4 2 -8 25 -72 132 -10 16
-20 38 -23 48 -4 9 -10 17 -15 17 -5 0 -9 4 -9 9 0 9 -18 41 -106 194 -20 34
-47 81 -60 104 -71 124 -158 270 -175 291 -34 43 -103 89 -167 111 l-62 21
-2353 -1 c-1293 -1 -2368 -5 -2387 -9z"/>
<path d="M5096 4402 c-2 -1 -59 -4 -127 -5 -109 -3 -131 -6 -182 -30 -60 -27
-167 -125 -167 -152 0 -8 -5 -15 -12 -15 -6 0 -9 -2 -6 -6 3 -3 -2 -26 -12
-52 -16 -43 -21 -153 -8 -202 5 -21 53 -118 81 -165 84 -139 115 -195 111
-195 -2 0 9 -19 26 -42 16 -22 30 -44 30 -48 0 -4 24 -48 54 -97 29 -49 64
-109 78 -133 133 -233 163 -286 168 -290 5 -5 33 -56 69 -125 9 -16 18 -32 21
-35 3 -3 15 -23 28 -45 44 -79 143 -250 152 -265 9 -13 25 -41 90 -155 9 -16
58 -101 109 -188 50 -88 91 -163 91 -168 0 -5 5 -9 10 -9 6 0 10 -7 10 -15 0
-8 5 -15 11 -15 5 0 8 -4 4 -9 -3 -5 -1 -12 4 -16 5 -3 16 -18 24 -33 7 -15
24 -45 37 -67 12 -22 33 -58 45 -80 13 -22 49 -85 82 -140 70 -120 106 -193
98 -205 -3 -4 0 -10 6 -12 19 -6 15 -185 -6 -247 -32 -95 -125 -208 -200 -245
-72 -35 -108 -48 -141 -49 -18 -1 -34 -5 -34 -8 0 -6 -62 -3 -121 6 -133 19
-267 125 -339 270 -13 25 -66 118 -101 175 -5 8 -15 26 -21 40 -7 14 -15 27
-18 30 -5 5 -12 16 -58 99 -14 25 -32 58 -41 73 -16 26 -173 297 -201 347 -8
14 -27 46 -41 71 -15 25 -36 61 -47 80 -10 19 -43 76 -72 125 -50 86 -74 128
-116 205 -10 19 -21 37 -24 40 -8 8 -40 62 -58 100 -9 19 -20 37 -23 40 -6 6
-246 422 -263 457 -6 13 -14 23 -18 23 -5 0 -8 6 -8 13 0 6 -18 40 -40 75 -22
34 -40 65 -40 68 0 3 -19 38 -43 77 -24 40 -47 79 -50 87 -4 8 -15 29 -26 45
-10 17 -27 46 -38 65 -11 19 -44 75 -72 123 -28 49 -51 93 -51 98 0 5 -4 9
-10 9 -5 0 -10 4 -10 10 0 11 -20 37 -62 81 -25 26 -106 73 -152 87 -11 4
-685 8 -1497 9 -1581 3 -1493 6 -1597 -43 -54 -25 -130 -107 -159 -171 -22
-48 -27 -73 -27 -148 -1 -85 1 -94 37 -165 42 -85 79 -153 88 -160 3 -3 13
-21 23 -40 9 -19 30 -55 46 -80 16 -25 29 -51 29 -57 1 -7 6 -13 11 -13 6 0
10 -4 10 -9 0 -8 159 -290 198 -351 9 -14 17 -27 17 -30 0 -3 26 -48 56 -100
122 -205 159 -271 159 -280 0 -6 5 -10 10 -10 6 0 10 -4 10 -9 0 -5 27 -55 60
-111 33 -56 60 -106 60 -111 0 -5 5 -9 10 -9 6 0 10 -5 10 -11 0 -6 40 -79 89
-162 48 -84 103 -179 121 -212 18 -33 39 -67 46 -76 8 -8 14 -20 14 -25 0 -5
16 -33 35 -61 19 -29 35 -55 35 -59 0 -4 14 -30 32 -58 32 -52 41 -68 98 -171
19 -33 36 -62 39 -65 4 -3 14 -21 23 -40 16 -31 35 -65 87 -152 9 -15 45 -78
80 -140 35 -62 67 -115 70 -118 3 -3 14 -21 23 -40 10 -19 22 -42 28 -50 37
-58 100 -170 100 -179 0 -6 5 -11 10 -11 6 0 10 -6 10 -13 0 -16 56 -94 90
-125 26 -23 107 -69 144 -80 11 -4 1090 -8 2396 -9 2563 -3 2400 -6 2496 48
30 16 377 348 462 441 8 9 296 297 640 640 343 343 632 631 641 641 9 10 54
55 100 100 83 82 165 192 155 208 -3 5 -1 9 3 9 8 0 14 30 16 83 1 9 5 17 10
17 4 0 5 5 1 11 -3 6 -8 27 -10 47 -7 60 -8 64 -43 132 -52 102 -68 130 -87
151 -9 10 -14 19 -10 19 4 0 -1 12 -12 28 -10 15 -30 47 -44 72 -14 25 -82
144 -153 265 -132 228 -170 294 -189 332 -6 13 -14 23 -18 23 -5 0 -8 5 -8 10
0 8 -123 227 -180 320 -5 8 -53 92 -106 185 -177 308 -216 370 -258 408 -43
41 -141 91 -157 82 -5 -4 -9 -2 -9 2 0 5 -8 9 -17 9 -22 1 -153 4 -173 4 -8 0
-36 0 -61 1 -25 1 -51 -1 -57 -5 -7 -4 -12 -2 -12 4 0 7 -6 8 -19 1 -10 -6
-21 -8 -24 -4 -8 8 -91 8 -104 0 -6 -4 -19 -4 -29 0 -15 5 -68 8 -91 3 -7 -1
-96 -1 -188 1 -22 0 -44 0 -50 -1 -12 -1 -133 0 -192 2 -24 1 -45 -1 -49 -4
-3 -4 -18 -3 -33 2 -16 4 -34 4 -42 0 -7 -5 -17 -6 -22 -3 -13 8 -92 7 -105
-1 -7 -4 -12 -2 -12 4 0 7 -6 8 -19 1 -10 -6 -21 -8 -24 -4 -5 5 -76 7 -102 3
-9 -1 -53 -1 -150 1 -22 0 -44 0 -50 0 -9 -2 -178 -1 -270 0 -22 1 -44 0 -50
-1 -5 -1 -13 -2 -16 -2 -6 1 -122 2 -149 2 -8 0 -36 0 -61 1 -25 1 -51 -1 -57
-5 -7 -4 -12 -2 -12 4 0 7 -6 8 -19 1 -10 -6 -21 -8 -24 -4 -8 8 -91 8 -104 0
-6 -4 -19 -4 -29 0 -15 5 -68 8 -91 3 -12 -2 -142 0 -191 3 -24 1 -45 1 -46
-1z"/>
</g>
</svg>
