<?xml version="1.0" standalone="no"?>
<!DOCTYPE svg PUBLIC "-//W3C//DTD SVG 20010904//EN"
 "http://www.w3.org/TR/2001/REC-SVG-20010904/DTD/svg10.dtd">
<svg version="1.0" xmlns="http://www.w3.org/2000/svg"
 width="704.000000pt" height="704.000000pt" viewBox="0 0 704.000000 704.000000"
 preserveAspectRatio="xMidYMid meet">
<metadata>
Created by potrace 1.14, written by Peter Selinger 2001-2017
</metadata>
<g transform="translate(0.000000,704.000000) scale(0.100000,-0.100000)"
fill="#000000" stroke="none">
<path d="M4390 6155 l0 -885 -865 0 -865 0 0 -885 0 -885 -885 0 -885 0 0
-865 0 -865 883 -2 882 -3 3 -883 2 -882 865 0 865 0 2 882 3 883 883 3 882 2
0 865 0 865 -885 0 -885 0 0 885 0 885 885 0 885 0 0 885 0 885 -885 0 -885 0
0 -885z"/>
</g>
</svg>
