<?xml version="1.0" standalone="no"?>
<!DOCTYPE svg PUBLIC "-//W3C//DTD SVG 20010904//EN"
 "http://www.w3.org/TR/2001/REC-SVG-20010904/DTD/svg10.dtd">
<svg version="1.0" xmlns="http://www.w3.org/2000/svg"
 width="704.000000pt" height="704.000000pt" viewBox="0 0 704.000000 704.000000"
 preserveAspectRatio="xMidYMid meet">
<metadata>
Created by potrace 1.14, written by Peter Selinger 2001-2017
</metadata>
<g transform="translate(0.000000,704.000000) scale(0.100000,-0.100000)"
fill="#000000" stroke="none">
<path d="M4390 6155 l0 -885 -865 0 -865 0 0 -132 c-1 -73 -1 -472 -1 -885 l0
-753 -27 -1 c-15 0 -413 0 -885 -1 l-857 0 0 -866 0 -867 884 0 885 0 0 -835
c0 -459 1 -856 1 -882 l0 -48 865 0 865 0 2 882 3 883 883 0 882 0 -2 865 -3
865 -880 1 -880 2 -3 886 -2 886 885 0 885 0 0 885 0 885 -885 0 -885 0 0
-885z"/>
</g>
</svg>
